<?xml version="1.0" standalone="no"?>
<!DOCTYPE svg PUBLIC "-//W3C//DTD SVG 20010904//EN"
 "http://www.w3.org/TR/2001/REC-SVG-20010904/DTD/svg10.dtd">
<svg version="1.0" xmlns="http://www.w3.org/2000/svg"
 width="92.000000pt" height="92.000000pt" viewBox="0 0 92.000000 92.000000"
 preserveAspectRatio="xMidYMid meet">

<g transform="translate(0.000000,92.000000) scale(0.100000,-0.100000)"
fill="#000000" stroke="none">
<path d="M410 790 c0 -22 5 -40 10 -40 6 0 10 18 10 40 0 22 -4 40 -10 40 -5
0 -10 -18 -10 -40z"/>
<path d="M500 790 c0 -22 5 -40 10 -40 6 0 10 18 10 40 0 22 -4 40 -10 40 -5
0 -10 -18 -10 -40z"/>
<path d="M350 766 c0 -30 5 -37 33 -51 42 -21 61 -36 74 -59 10 -19 11 -19 17
0 3 11 29 33 56 49 41 24 50 34 50 57 0 33 -20 38 -21 6 0 -16 -15 -32 -47
-53 l-47 -30 -47 30 c-33 21 -48 37 -48 52 0 12 -4 25 -10 28 -6 4 -10 -8 -10
-29z"/>
<path d="M180 675 c0 -19 5 -35 10 -35 6 0 10 16 10 35 0 19 -4 35 -10 35 -5
0 -10 -16 -10 -35z"/>
<path d="M263 675 c0 -22 2 -30 4 -17 2 12 2 30 0 40 -3 9 -5 -1 -4 -23z"/>
<path d="M320 701 c0 -30 25 -60 74 -91 30 -19 59 -44 64 -55 l9 -20 7 20 c3
12 31 36 62 55 54 32 81 70 68 92 -4 6 -13 -3 -20 -20 -7 -19 -28 -39 -51 -51
-22 -11 -45 -26 -52 -34 -10 -13 -20 -10 -74 27 -39 26 -63 50 -65 64 -3 21
-22 32 -22 13z"/>
<path d="M657 703 c-11 -10 -8 -63 3 -63 6 0 10 16 10 35 0 36 -2 40 -13 28z"/>
<path d="M733 675 c0 -22 2 -30 4 -17 2 12 2 30 0 40 -3 9 -5 -1 -4 -23z"/>
<path d="M138 674 c-18 -17 -5 -42 37 -72 25 -17 45 -36 45 -42 0 -5 5 -10 10
-10 6 0 10 7 10 15 0 9 7 18 15 21 8 4 15 13 15 22 0 13 -3 13 -19 -2 -18 -17
-21 -16 -59 8 -23 14 -42 35 -44 47 -2 11 -6 17 -10 13z"/>
<path d="M770 653 c-1 -10 -17 -28 -36 -40 -33 -21 -37 -22 -60 -7 -30 20 -31
10 -1 -26 l23 -27 29 28 c15 16 36 31 46 34 12 4 19 16 19 31 0 27 -20 34 -20
7z"/>
<path d="M110 593 c0 -26 10 -37 58 -67 24 -15 45 -33 49 -41 7 -19 23 -19 23
-1 0 7 10 21 23 29 16 12 18 16 6 16 -8 1 -20 -4 -25 -9 -15 -15 -103 36 -114
66 -11 28 -20 31 -20 7z"/>
<path d="M320 592 c0 -26 17 -44 78 -82 28 -18 52 -39 52 -47 0 -7 5 -13 10
-13 6 0 10 4 10 10 0 5 26 27 57 47 57 38 88 77 76 97 -4 5 -11 -2 -15 -16 -6
-17 -31 -39 -69 -62 l-59 -35 -38 24 c-72 47 -82 56 -82 75 0 11 -4 20 -10 20
-5 0 -10 -8 -10 -18z"/>
<path d="M800 592 c0 -14 -11 -27 -32 -38 -18 -9 -40 -23 -50 -31 -14 -13 -19
-13 -42 2 -33 22 -33 11 -2 -26 20 -24 26 -27 33 -14 5 8 30 28 56 45 51 32
66 55 48 73 -8 8 -11 5 -11 -11z"/>
<path d="M110 510 c0 -20 33 -60 49 -60 5 0 23 -11 39 -25 l30 -25 28 25 c17
16 22 25 12 25 -7 0 -19 -5 -24 -10 -18 -18 -114 42 -114 71 0 11 -4 19 -10
19 -5 0 -10 -9 -10 -20z"/>
<path d="M796 508 c-6 -27 -101 -84 -111 -68 -3 5 -13 10 -22 10 -12 0 -9 -6
10 -25 l25 -26 28 26 c15 14 32 25 39 25 17 0 55 43 55 63 0 25 -17 21 -24 -5z"/>
<path d="M326 512 c-17 -28 4 -60 60 -93 31 -17 59 -40 61 -50 6 -23 19 -25
27 -4 3 8 30 31 61 51 55 35 85 78 67 96 -6 6 -12 -2 -15 -19 -5 -21 -21 -37
-64 -64 l-59 -36 -59 36 c-47 29 -61 43 -65 66 -4 21 -8 26 -14 17z"/>
<path d="M110 433 c0 -25 9 -35 63 -72 26 -17 47 -36 47 -41 0 -6 5 -10 10
-10 6 0 10 6 10 14 0 7 10 21 23 29 16 12 18 16 6 16 -8 1 -20 -4 -26 -10 -16
-16 -107 40 -111 69 -4 26 -22 30 -22 5z"/>
<path d="M795 428 c-6 -13 -29 -35 -53 -51 -34 -23 -46 -26 -57 -17 -27 22
-34 5 -9 -23 20 -24 25 -26 30 -12 4 9 24 25 45 35 38 20 69 54 69 77 0 20
-14 15 -25 -9z"/>
<path d="M325 408 c-10 -26 12 -56 66 -89 27 -17 54 -40 60 -51 11 -20 11 -20
26 1 8 12 38 37 68 55 53 34 76 69 57 88 -6 6 -12 0 -16 -16 -4 -16 -27 -39
-64 -63 l-57 -38 -55 32 c-39 23 -58 42 -67 65 -9 26 -13 29 -18 16z"/>
<path d="M110 352 c0 -24 18 -45 62 -71 21 -13 42 -30 47 -39 8 -13 12 -12 34
14 26 29 19 47 -8 24 -21 -17 -109 36 -113 68 -4 26 -22 30 -22 4z"/>
<path d="M800 351 c0 -24 -98 -87 -113 -72 -6 6 -17 11 -25 11 -9 0 -6 -9 10
-29 24 -31 38 -38 38 -20 0 13 40 48 56 49 29 1 73 80 44 80 -5 0 -10 -8 -10
-19z"/>
<path d="M326 312 c-14 -24 6 -54 62 -89 32 -20 58 -37 60 -38 2 -2 7 -25 12
-52 l8 -48 -1 54 -2 55 -60 40 c-37 26 -61 50 -65 66 -4 17 -8 21 -14 12z"/>
<path d="M586 295 c-4 -15 -24 -36 -49 -52 -50 -31 -36 -43 16 -13 34 20 65
74 47 85 -4 3 -11 -6 -14 -20z"/>
<path d="M110 273 c0 -24 9 -34 47 -61 34 -24 43 -27 43 -13 0 5 -16 19 -35
31 -19 12 -35 28 -35 35 0 8 -4 17 -10 20 -5 3 -10 -2 -10 -12z"/>
<path d="M800 271 c0 -11 -15 -28 -35 -40 -19 -11 -35 -25 -35 -32 0 -14 47
14 73 43 19 22 23 48 7 48 -5 0 -10 -9 -10 -19z"/>
<path d="M237 192 c-18 -20 -23 -92 -7 -92 6 0 10 14 10 32 0 19 9 41 22 55
16 18 18 23 6 23 -8 0 -22 -8 -31 -18z"/>
<path d="M668 187 c13 -14 22 -36 22 -56 0 -19 4 -30 10 -26 20 12 11 73 -12
89 -33 24 -45 19 -20 -7z"/>
</g>
</svg>
